<?xml version="1.0" encoding="UTF-8"?><svg id="Layer_1" xmlns="http://www.w3.org/2000/svg" viewBox="0 0 384 510.68"><defs><style>.cls-1{fill:#fff;}.cls-2{fill:#4863a0;}</style></defs><path class="cls-2" d="M384,192c0,87.4-117,243-168.3,307.2-12.3,15.3-35.1,15.3-47.4,0C116.1,435,0,279.4,0,192,0,85.96,85.96,0,192,0s192,85.96,192,192h0Z"/><path class="cls-1" d="M212.18,76.61c-6.38-11.15-20.58-15.01-31.73-8.64-3.6,2.06-6.58,5.04-8.64,8.64l-26.41,46.19c-2.13,3.72-.84,8.46,2.88,10.59s8.46,.84,10.59-2.88l26.4-46.21c2.13-3.72,6.86-5,10.58-2.88,1.2,.69,2.19,1.68,2.88,2.88l39.37,68.88-19.47-5.22c-4.13-1.11-8.39,1.34-9.5,5.47-1.11,4.13,1.34,8.39,5.47,9.5l37.43,10.03c4.13,1.11,8.39-1.33,9.5-5.47h0l10.03-37.44c1.11-4.13-1.34-8.39-5.48-9.49-4.13-1.11-8.39,1.34-9.49,5.48l-5.16,19.25-39.25-68.68Zm-98.1,101.01l-19.45,5.22c-4.13,1.11-8.39-1.34-9.5-5.47s1.34-8.39,5.47-9.5l37.45-10.03c4.13-1.1,8.37,1.34,9.49,5.47l10.03,37.43c1.11,4.13-1.34,8.39-5.48,9.49-4.13,1.11-8.39-1.34-9.49-5.48l-5.16-19.25-39.45,69.04c-2.12,3.72-.83,8.45,2.89,10.57,1.17,.67,2.49,1.02,3.84,1.02h50.79c4.28,0,7.75,3.47,7.75,7.75s-3.47,7.75-7.75,7.75h-50.79c-12.84,0-23.25-10.42-23.24-23.26,0-4.04,1.06-8.01,3.06-11.52l39.56-69.24Zm168.8,22.68c-2.04-3.77-6.74-5.17-10.5-3.13-3.77,2.04-5.17,6.74-3.13,10.5,.06,.11,.12,.21,.18,.32l26.6,46.56c2.12,3.72,.83,8.45-2.89,10.57-1.17,.67-2.49,1.02-3.84,1.02h-86.33l10.03-10.01c3.03-3.03,3.02-7.94,0-10.97-3.03-3.03-7.94-3.02-10.97,0h0l-23.25,23.25c-3.03,3-3.05,7.89-.04,10.92l.04,.04,23.25,23.25c3.03,3.03,7.94,3.03,10.97,0,3.03-3.03,3.03-7.94,0-10.97h0l-10.03-10.03h86.33c12.84,0,23.25-10.42,23.24-23.26,0-4.04-1.06-8.01-3.06-11.52l-26.6-46.56Z"/></svg>