<?xml version="1.0" encoding="UTF-8"?><svg id="Layer_1" xmlns="http://www.w3.org/2000/svg" viewBox="0 0 384 510.68"><defs><style>.cls-1{fill:#fff;}</style></defs><path d="M384,192c0,87.4-117,243-168.3,307.2-12.3,15.3-35.1,15.3-47.4,0C116.1,435,0,279.4,0,192,0,85.96,85.96,0,192,0s192,85.96,192,192h0Z"/><path id="toiletbrush" class="cls-1" d="M287.17,298.79c-8.47,.99-16.94-1.88-23.05-7.82-4.54-6.25-6.77-13.89-6.31-21.6V114.94c.92,1.18,2.42,3.44,4.49,6.77,1.33,2.26,2.83,4.41,4.49,6.44,.92,.99,2.38,2.37,4.36,4.13,1.9,1.72,4.25,2.88,6.77,3.33,3.08,.5,6.19,.73,9.31,.69,10.36,.1,20.55-2.68,29.42-8.03v162.95c-8.92,5.19-19.1,7.82-29.42,7.59l-.05-.02Zm-125.01,14.7c-13.66,.1-27.29-1.2-40.68-3.9-10.37-1.83-20.33-5.49-29.42-10.8-7.2-4.6-10.8-9.5-10.8-14.7V129.58c10.29,7.3,21.87,12.57,34.14,15.52,15.26,4.03,30.99,6,46.77,5.87,15.77,.15,31.49-1.81,46.75-5.82,12.27-2.97,23.86-8.25,34.14-15.57v154.43c0,5.21-3.6,10.11-10.8,14.7-9.09,5.31-19.05,8.97-29.42,10.8-13.39,2.7-27.02,4.01-40.68,3.9l.02,.07Zm0-176.49c-13.66,.12-27.29-1.18-40.68-3.87-10.35-1.82-20.3-5.42-29.42-10.64-7.2-4.58-10.8-9.55-10.8-14.91,0-5.37,3.6-10.3,10.8-14.81,9.12-5.24,19.07-8.86,29.42-10.69,13.39-2.7,27.02-4.02,40.68-3.92,13.66-.1,27.29,1.2,40.68,3.9,10.35,1.82,20.3,5.42,29.42,10.64,7.2,4.52,10.8,9.46,10.8,14.83s-3.6,10.36-10.8,14.97c-9.12,5.22-19.07,8.82-29.42,10.64-13.39,2.7-27.02,4.01-40.68,3.9v-.04Zm0-44.12c-8.85-.22-17.67,1.26-25.96,4.36-7.2,2.91-10.8,6.4-10.8,10.46s3.6,7.51,10.8,10.34c8.31,3.02,17.12,4.47,25.96,4.26,8.84,.22,17.65-1.23,25.96-4.26,7.2-2.84,10.8-6.28,10.8-10.34,0-4.06-3.6-7.54-10.8-10.46-8.29-3.11-17.11-4.59-25.96-4.36Z"/></svg>