<?xml version="1.0" encoding="UTF-8"?><svg id="Layer_1" xmlns="http://www.w3.org/2000/svg" viewBox="0 0 384 510.68"><defs><style>.cls-1{fill:#fff;}.cls-2{fill:#bb2423;}</style></defs><path class="cls-2" d="M384,192c0,87.4-117,243-168.3,307.2-12.3,15.3-35.1,15.3-47.4,0C116.1,435,0,279.4,0,192,0,85.96,85.96,0,192,0s192,85.96,192,192h0Z"/><path class="cls-1" d="M221.44,169.71l-57.13,7.16-2.04,9.48,11.24,2.04c7.31,1.76,8.77,4.38,7.18,11.69l-18.42,86.47c-4.82,22.35,2.65,32.87,20.16,32.87,13.6,0,29.36-6.27,36.52-14.91l2.19-10.37c-4.97,4.38-12.28,6.14-17.1,6.14-6.86,0-9.33-4.82-7.59-13.3l25-117.29Zm1.72-52.05c0,13.77-11.17,24.94-24.94,24.94s-24.94-11.17-24.94-24.94,11.17-24.94,24.94-24.94,24.94,11.17,24.94,24.94Z"/></svg>