<?xml version="1.0" encoding="UTF-8"?><svg id="Layer_1" xmlns="http://www.w3.org/2000/svg" viewBox="0 0 384 510.68"><defs><style>.cls-1{fill:#fff;}.cls-2{fill:#777;}</style></defs><path class="cls-2" d="M384,192c0,87.4-117,243-168.3,307.2-12.3,15.3-35.1,15.3-47.4,0C116.1,435,0,279.4,0,192,0,85.96,85.96,0,192,0s192,85.96,192,192h0Z"/><path class="cls-1" d="M114.33,104.97c0-5.36,4.35-9.71,9.71-9.71h29.12c5.36,0,9.71,4.35,9.71,9.71s-4.35,9.71-9.71,9.71v9.71h80.38l7.49-22.48c1.32-3.96,5.03-6.64,9.2-6.64h19.42c5.36,0,9.71,4.35,9.71,9.71s-4.35,9.71-9.71,9.71h-12.43l-6.04,18.15,15.67,25.05c29.74-12.26,63.79,1.9,76.05,31.64,12.26,29.74-1.9,63.79-31.64,76.05-29.74,12.26-63.79-1.9-76.05-31.64-9.45-22.92-3.36-49.3,15.18-65.76l-9.86-15.77-40.31,64.5c-1.77,2.84-4.88,4.56-8.23,4.56h-39.63c-5.36,31.72-35.43,53.08-67.14,47.72-31.72-5.36-53.08-35.43-47.72-67.14,5.36-31.72,35.43-53.08,67.14-47.72,4.28,.72,8.47,1.92,12.48,3.58l16.62-26.6v-16.62h-9.71c-5.36,0-9.71-4.35-9.71-9.71Zm29.12,47.43l-9.86,15.8c9.71,8.62,16.5,20.46,18.77,33.84h22.11l-31.03-49.64Zm48.54,41.04l31.03-49.64h-62.05l31.03,49.64Zm-59.47,8.6c-1.65-6.39-4.91-12.25-9.46-17.03l-10.64,17.03h20.09Zm-25.9-27.34c-20.45-6.46-42.26,4.88-48.72,25.33-6.46,20.45,4.88,42.26,25.33,48.72,20.45,6.46,42.26-4.88,48.72-25.33,.21-.65,.39-1.31,.57-1.97h-37.61c-5.36,0-9.71-4.35-9.71-9.71,0-1.82,.51-3.6,1.48-5.15l19.94-31.9Zm154.29,10.29c-14.77,15.55-14.13,40.13,1.42,54.9,15.55,14.77,40.13,14.13,54.9-1.42,14.77-15.55,14.13-40.13-1.42-54.9-10.24-9.73-24.96-13.12-38.43-8.87l19.92,31.9c2.84,4.55,1.46,10.54-3.09,13.38-4.55,2.84-10.54,1.46-13.38-3.09l-19.92-31.88v-.02Z"/></svg>