<?xml version="1.0" encoding="UTF-8"?><svg id="a" xmlns="http://www.w3.org/2000/svg" xmlns:xlink="http://www.w3.org/1999/xlink" viewBox="0 0 169.81 185.09"><defs><style>.d{fill:#fff;}.e{fill-rule:evenodd;}.e,.f{fill:#b39436;}.g{fill:#2d3739;}.h{clip-path:url(#b);}.i{clip-path:url(#c);}.j,.k{fill:none;}.k{stroke:#b39436;stroke-miterlimit:10;stroke-width:2.57px;}</style><clipPath id="b"><rect class="j" x="13.33" y="23.04" width="141.73" height="141.73"/></clipPath><clipPath id="c"><path class="j" d="M13.33,93.9c0,39.14,31.73,70.87,70.87,70.87s70.87-31.73,70.87-70.87S123.33,23.04,84.2,23.04,13.33,54.76,13.33,93.9"/></clipPath></defs><g class="h"><path class="g" d="M84.2,164.77c39.14,0,70.87-31.73,70.87-70.87S123.33,23.04,84.2,23.04,13.33,54.76,13.33,93.9s31.73,70.87,70.87,70.87"/></g><g class="i"><polygon class="f" points="50.06 12.41 53.55 19.38 55.29 15.89 53.55 12.41 50.06 12.41"/><polygon class="k" points="50.06 12.41 53.55 19.37 55.29 15.89 53.55 12.41 50.06 12.41"/><polygon class="e" points="161.56 96.03 165.04 103 166.79 99.51 165.04 96.03 154.59 75.12 144.14 96.03 142.4 99.51 144.14 103 147.62 96.03 154.59 82.09 161.56 96.03"/><polygon class="k" points="161.56 96.03 165.04 103 166.79 99.51 165.04 96.03 154.59 75.12 144.14 96.03 142.4 99.51 144.14 103 147.62 96.03 154.59 82.09 161.56 96.03"/><polygon class="e" points="112.78 165.71 114.52 162.23 112.78 158.75 111.04 162.23 112.78 165.71"/><polygon class="k" points="112.78 165.71 114.52 162.23 112.78 158.75 111.04 162.23 112.78 165.71"/><polygon class="e" points="112.78 151.78 116.26 158.75 118.01 155.26 112.78 144.81 107.55 155.26 109.29 158.75 112.78 151.78"/><polygon class="k" points="112.78 151.78 116.26 158.75 118.01 155.26 112.78 144.81 107.55 155.26 109.29 158.75 112.78 151.78"/><polygon class="e" points="112.78 137.84 119.75 151.78 121.49 148.29 112.78 130.87 104.07 148.29 105.81 151.78 112.78 137.84"/><polygon class="k" points="112.78 137.84 119.75 151.78 121.49 148.29 112.78 130.87 104.07 148.29 105.81 151.78 112.78 137.84"/><polygon class="e" points="112.78 123.9 123.23 144.81 124.97 141.33 112.78 116.94 100.58 141.33 102.33 144.81 112.78 123.9"/><polygon class="k" points="112.78 123.9 123.23 144.81 124.97 141.33 112.78 116.94 100.58 141.33 102.33 144.81 112.78 123.9"/><polygon class="f" points="154.59 130.87 140.65 103 126.72 130.87 112.78 103 98.84 130.87 84.9 103 70.97 130.87 57.03 103 43.09 130.87 29.16 103 15.22 130.87 1.28 103 1.28 109.97 15.22 137.84 29.16 109.97 43.09 137.84 57.03 109.97 70.97 137.84 84.9 109.97 98.84 137.84 112.78 109.97 126.72 137.84 140.65 109.97 154.59 137.84 168.53 109.97 168.53 103 154.59 130.87"/><polygon class="k" points="112.78 109.97 126.72 137.84 140.65 109.97 154.59 137.84 168.53 109.97 168.53 103 154.59 130.87 140.65 103 126.72 130.87 112.78 103 98.84 130.87 84.91 103 70.97 130.87 57.03 103 43.09 130.87 29.16 103 15.22 130.87 1.28 103 1.28 109.97 15.22 137.84 29.16 109.97 43.09 137.84 57.03 109.97 70.97 137.84 84.91 109.97 98.84 137.84 112.78 109.97"/><polygon class="e" points="140.65 165.71 138.91 162.23 140.65 158.75 142.4 162.23 140.65 165.71"/><polygon class="k" points="140.65 165.71 138.91 162.23 140.65 158.75 142.4 162.23 140.65 165.71"/><polygon class="e" points="140.65 151.78 137.17 158.75 135.43 155.26 140.65 144.81 145.88 155.26 144.14 158.75 140.65 151.78"/><polygon class="k" points="140.65 151.78 137.17 158.75 135.43 155.26 140.65 144.81 145.88 155.26 144.14 158.75 140.65 151.78"/><polygon class="e" points="140.65 137.84 133.69 151.78 131.94 148.29 140.65 130.87 149.36 148.29 147.62 151.78 140.65 137.84"/><polygon class="k" points="140.65 137.84 133.69 151.78 131.94 148.29 140.65 130.87 149.36 148.29 147.62 151.78 140.65 137.84"/><polygon class="e" points="140.65 123.9 130.2 144.81 128.46 141.33 140.65 116.94 152.85 141.33 151.11 144.81 140.65 123.9"/><polygon class="k" points="140.65 123.9 130.2 144.81 128.46 141.33 140.65 116.94 152.85 141.33 151.11 144.81 140.65 123.9"/><polygon class="f" points="123.23 179.65 126.72 179.65 130.2 179.65 126.72 172.68 123.23 179.65"/><polygon class="k" points="123.23 179.65 126.72 172.68 130.2 179.65 126.72 179.65 123.23 179.65"/><polygon class="f" points="116.26 179.65 119.75 179.65 126.72 165.71 133.69 179.65 137.17 179.65 126.72 158.75 116.26 179.65"/><polygon class="k" points="126.72 165.71 119.75 179.65 116.26 179.65 126.72 158.75 137.17 179.65 133.68 179.65 126.72 165.71"/><polygon class="f" points="140.65 172.68 126.72 144.81 112.78 172.68 98.84 144.81 84.91 172.68 70.97 144.81 57.03 172.68 43.09 144.81 29.16 172.68 15.22 144.81 1.28 172.68 1.28 179.65 15.22 151.78 29.16 179.65 43.09 151.78 57.03 179.65 70.97 151.78 84.91 179.65 98.84 151.78 112.78 179.65 126.72 151.78 140.65 179.65 154.59 151.78 168.53 179.65 168.53 172.68 154.59 144.81 140.65 172.68"/><polygon class="k" points="126.72 151.78 112.78 179.65 98.84 151.78 84.91 179.65 70.97 151.78 57.03 179.65 43.09 151.78 29.16 179.65 15.22 151.78 1.28 179.65 1.28 172.68 15.22 144.81 29.16 172.68 43.09 144.81 57.03 172.68 70.97 144.81 84.91 172.68 98.84 144.81 112.78 172.68 126.72 144.81 140.65 172.68 154.59 144.81 168.53 172.68 168.53 179.65 154.59 151.78 140.65 179.65 126.72 151.78"/><polygon class="f" points="151.11 179.65 154.59 179.65 158.08 179.65 154.59 172.68 151.11 179.65"/><polygon class="k" points="158.07 179.65 154.59 172.68 151.11 179.65 154.59 179.65 158.07 179.65"/><polygon class="f" points="144.14 179.65 147.62 179.65 154.59 165.71 161.56 179.65 165.04 179.65 154.59 158.75 144.14 179.65"/><polygon class="k" points="154.59 165.71 161.56 179.65 165.04 179.65 154.59 158.75 144.14 179.65 147.62 179.65 154.59 165.71"/><polygon class="f" points="166.79 162.23 168.53 165.71 168.53 158.74 166.79 162.23"/><polygon class="k" points="168.53 158.75 166.79 162.23 168.53 165.71 168.53 158.75"/><polygon class="f" points="163.3 155.26 165.04 158.75 168.53 151.78 168.53 144.81 163.3 155.26"/><polygon class="k" points="168.53 144.81 163.3 155.26 165.04 158.75 168.53 151.78 168.53 144.81"/><polygon class="f" points="159.82 148.29 161.56 151.78 168.53 137.84 168.53 130.87 159.82 148.29"/><polygon class="k" points="168.53 130.87 159.82 148.29 161.56 151.78 168.53 137.84 168.53 130.87"/><polygon class="f" points="156.33 141.32 158.07 144.81 168.53 123.9 168.53 116.93 156.33 141.32"/><polygon class="k" points="168.53 116.93 156.33 141.32 158.07 144.81 168.53 123.9 168.53 116.93"/><polygon class="e" points="126.72 123.9 124.97 120.42 126.72 116.94 128.46 120.42 126.72 123.9"/><polygon class="k" points="126.72 123.9 124.97 120.42 126.72 116.94 128.46 120.42 126.72 123.9"/><polygon class="e" points="126.72 109.97 123.23 116.93 121.49 113.45 126.72 103 131.94 113.45 130.2 116.93 126.72 109.97"/><polygon class="k" points="126.72 109.97 123.23 116.93 121.49 113.45 126.72 103 131.94 113.45 130.2 116.93 126.72 109.97"/><polygon class="e" points="126.72 96.03 119.75 109.97 118.01 106.48 123.23 96.03 126.72 89.06 130.2 96.03 135.43 106.48 133.68 109.97 126.72 96.03"/><polygon class="k" points="126.72 96.03 119.75 109.97 118.01 106.48 123.23 96.03 126.72 89.06 130.2 96.03 135.43 106.48 133.68 109.97 126.72 96.03"/><polygon class="e" points="119.75 96.03 116.26 103 114.52 99.51 116.26 96.03 126.72 75.12 137.17 96.03 138.91 99.51 137.17 103 133.69 96.03 126.72 82.09 119.75 96.03"/><polygon class="k" points="119.75 96.03 116.26 103 114.52 99.51 116.26 96.03 126.72 75.12 137.17 96.03 138.91 99.51 137.17 103 133.69 96.03 126.72 82.09 119.75 96.03"/><polygon class="e" points="154.59 123.9 156.33 120.42 154.59 116.94 152.85 120.42 154.59 123.9"/><polygon class="k" points="154.59 123.9 156.33 120.42 154.59 116.94 152.85 120.42 154.59 123.9"/><polygon class="e" points="154.59 109.97 158.08 116.93 159.82 113.45 154.59 103 149.36 113.45 151.11 116.93 154.59 109.97"/><polygon class="k" points="154.59 109.97 158.08 116.93 159.82 113.45 154.59 103 149.36 113.45 151.11 116.93 154.59 109.97"/><polygon class="e" points="154.59 96.03 161.56 109.97 163.3 106.48 158.08 96.03 154.59 89.06 151.11 96.03 145.88 106.48 147.62 109.97 154.59 96.03"/><polygon class="k" points="154.59 96.03 161.56 109.97 163.3 106.48 158.08 96.03 154.59 89.06 151.11 96.03 145.88 106.48 147.62 109.97 154.59 96.03"/><polygon class="e" points="105.81 96.03 109.3 103 111.04 99.51 109.3 96.03 98.84 75.12 88.39 96.03 86.65 99.51 88.39 103 91.87 96.03 98.84 82.09 105.81 96.03"/><polygon class="k" points="105.81 96.03 109.3 103 111.04 99.51 109.3 96.03 98.84 75.12 88.39 96.03 86.65 99.51 88.39 103 91.87 96.03 98.84 82.09 105.81 96.03"/><polygon class="e" points="57.03 165.71 58.77 162.23 57.03 158.75 55.29 162.23 57.03 165.71"/><polygon class="k" points="57.03 165.71 58.77 162.23 57.03 158.75 55.29 162.23 57.03 165.71"/><polygon class="e" points="57.03 151.78 60.52 158.75 62.26 155.26 57.03 144.81 51.81 155.26 53.55 158.75 57.03 151.78"/><polygon class="k" points="57.03 151.78 60.52 158.75 62.26 155.26 57.03 144.81 51.81 155.26 53.55 158.75 57.03 151.78"/><polygon class="e" points="57.03 137.84 64 151.78 65.74 148.29 57.03 130.87 48.32 148.29 50.06 151.78 57.03 137.84"/><polygon class="k" points="57.03 137.84 64 151.78 65.74 148.29 57.03 130.87 48.32 148.29 50.06 151.78 57.03 137.84"/><polygon class="e" points="57.03 123.9 67.48 144.81 69.23 141.33 57.03 116.94 44.84 141.33 46.58 144.81 57.03 123.9"/><polygon class="k" points="57.03 123.9 67.48 144.81 69.23 141.33 57.03 116.94 44.84 141.33 46.58 144.81 57.03 123.9"/><polygon class="e" points="84.91 165.71 83.16 162.23 84.91 158.75 86.65 162.23 84.91 165.71"/><polygon class="k" points="84.91 165.71 83.16 162.23 84.91 158.75 86.65 162.23 84.91 165.71"/><polygon class="e" points="84.91 151.78 81.42 158.75 79.68 155.26 84.91 144.81 90.13 155.26 88.39 158.75 84.91 151.78"/><polygon class="k" points="84.91 151.78 81.42 158.75 79.68 155.26 84.91 144.81 90.13 155.26 88.39 158.75 84.91 151.78"/><polygon class="e" points="84.91 137.84 77.94 151.78 76.19 148.29 84.91 130.87 93.62 148.29 91.87 151.78 84.91 137.84"/><polygon class="k" points="84.91 137.84 77.94 151.78 76.19 148.29 84.91 130.87 93.62 148.29 91.87 151.78 84.91 137.84"/><polygon class="e" points="84.91 123.9 74.45 144.81 72.71 141.33 84.91 116.94 97.1 141.33 95.36 144.81 84.91 123.9"/><polygon class="k" points="84.91 123.9 74.45 144.81 72.71 141.33 84.91 116.94 97.1 141.33 95.36 144.81 84.91 123.9"/><polygon class="f" points="67.48 179.65 70.97 179.65 74.45 179.65 70.97 172.68 67.48 179.65"/><polygon class="k" points="67.48 179.65 70.97 172.68 74.45 179.65 70.97 179.65 67.48 179.65"/><polygon class="f" points="60.52 179.65 64 179.65 70.97 165.71 77.94 179.65 81.42 179.65 70.97 158.75 60.52 179.65"/><polygon class="k" points="70.97 165.71 64 179.65 60.52 179.65 70.97 158.75 81.42 179.65 77.94 179.65 70.97 165.71"/><polygon class="f" points="95.36 179.65 98.84 179.65 102.33 179.65 98.84 172.68 95.36 179.65"/><polygon class="k" points="102.33 179.65 98.84 172.68 95.36 179.65 98.84 179.65 102.33 179.65"/><polygon class="f" points="88.39 179.65 91.87 179.65 98.84 165.71 105.81 179.65 109.29 179.65 98.84 158.75 88.39 179.65"/><polygon class="k" points="98.84 165.71 105.81 179.65 109.29 179.65 98.84 158.75 88.39 179.65 91.87 179.65 98.84 165.71"/><polygon class="e" points="70.97 123.9 69.23 120.42 70.97 116.94 72.71 120.42 70.97 123.9"/><polygon class="k" points="70.97 123.9 69.23 120.42 70.97 116.94 72.71 120.42 70.97 123.9"/><polygon class="e" points="70.97 109.97 67.48 116.93 65.74 113.45 70.97 103 76.19 113.45 74.45 116.93 70.97 109.97"/><polygon class="k" points="70.97 109.97 67.48 116.93 65.74 113.45 70.97 103 76.19 113.45 74.45 116.93 70.97 109.97"/><polygon class="e" points="70.97 96.03 64 109.97 62.26 106.48 67.48 96.03 70.97 89.06 74.45 96.03 79.68 106.48 77.94 109.97 70.97 96.03"/><polygon class="k" points="70.97 96.03 64 109.97 62.26 106.48 67.48 96.03 70.97 89.06 74.45 96.03 79.68 106.48 77.94 109.97 70.97 96.03"/><polygon class="e" points="64 96.03 60.52 103 58.77 99.51 60.52 96.03 70.97 75.12 81.42 96.03 83.16 99.51 81.42 103 77.94 96.03 70.97 82.09 64 96.03"/><polygon class="k" points="64 96.03 60.52 103 58.77 99.51 60.52 96.03 70.97 75.12 81.42 96.03 83.16 99.51 81.42 103 77.94 96.03 70.97 82.09 64 96.03"/><polygon class="e" points="98.84 123.9 100.58 120.42 98.84 116.94 97.1 120.42 98.84 123.9"/><polygon class="k" points="98.84 123.9 100.58 120.42 98.84 116.94 97.1 120.42 98.84 123.9"/><polygon class="e" points="98.84 109.97 102.33 116.93 104.07 113.45 98.84 103 93.62 113.45 95.36 116.93 98.84 109.97"/><polygon class="k" points="98.84 109.97 102.33 116.93 104.07 113.45 98.84 103 93.62 113.45 95.36 116.93 98.84 109.97"/><polygon class="e" points="98.84 96.03 105.81 109.97 107.55 106.48 102.33 96.03 98.84 89.06 95.36 96.03 90.13 106.48 91.87 109.97 98.84 96.03"/><polygon class="k" points="98.84 96.03 105.81 109.97 107.55 106.48 102.33 96.03 98.84 89.06 95.36 96.03 90.13 106.48 91.87 109.97 98.84 96.03"/><polygon class="e" points="50.06 96.03 53.55 103 55.29 99.51 53.55 96.03 43.1 75.12 32.64 96.03 30.9 99.51 32.64 103 36.13 96.03 43.1 82.09 50.06 96.03"/><polygon class="k" points="50.06 96.03 53.55 103 55.29 99.51 53.55 96.03 43.1 75.12 32.64 96.03 30.9 99.51 32.64 103 36.13 96.03 43.1 82.09 50.06 96.03"/><polygon class="f" points="1.28 165.71 3.03 162.23 1.28 158.75 1.28 165.71"/><polygon class="k" points="1.28 165.71 3.03 162.23 1.28 158.75 1.28 165.71"/><polygon class="f" points="1.28 151.78 4.77 158.75 6.51 155.26 1.28 144.81 1.28 151.78"/><polygon class="k" points="1.28 151.78 4.77 158.75 6.51 155.26 1.28 144.81 1.28 151.78"/><polygon class="f" points="1.28 137.84 8.25 151.78 9.99 148.29 1.28 130.87 1.28 137.84"/><polygon class="k" points="1.28 137.84 8.25 151.78 9.99 148.29 1.28 130.87 1.28 137.84"/><polygon class="f" points="1.28 123.9 11.74 144.81 13.48 141.32 1.28 116.93 1.28 123.9"/><polygon class="k" points="1.28 123.9 11.74 144.81 13.48 141.33 1.28 116.94 1.28 123.9"/><polygon class="e" points="29.16 165.71 27.42 162.23 29.16 158.75 30.9 162.23 29.16 165.71"/><polygon class="k" points="29.16 165.71 27.42 162.23 29.16 158.75 30.9 162.23 29.16 165.71"/><polygon class="e" points="29.16 151.78 25.67 158.75 23.93 155.26 29.16 144.81 34.38 155.26 32.64 158.75 29.16 151.78"/><polygon class="k" points="29.16 151.78 25.67 158.75 23.93 155.26 29.16 144.81 34.38 155.26 32.64 158.75 29.16 151.78"/><polygon class="e" points="29.16 137.84 22.19 151.78 20.45 148.29 29.16 130.87 37.87 148.29 36.13 151.78 29.16 137.84"/><polygon class="k" points="29.16 137.84 22.19 151.78 20.45 148.29 29.16 130.87 37.87 148.29 36.13 151.78 29.16 137.84"/><polygon class="e" points="29.16 123.9 18.7 144.81 16.96 141.33 29.16 116.94 41.35 141.33 39.61 144.81 29.16 123.9"/><polygon class="k" points="29.16 123.9 18.7 144.81 16.96 141.33 29.16 116.94 41.35 141.33 39.61 144.81 29.16 123.9"/><polygon class="f" points="11.74 179.65 15.22 179.65 18.7 179.65 15.22 172.68 11.74 179.65"/><polygon class="k" points="11.74 179.65 15.22 172.68 18.7 179.65 15.22 179.65 11.74 179.65"/><polygon class="f" points="4.77 179.65 8.25 179.65 15.22 165.71 22.19 179.65 25.67 179.65 15.22 158.75 4.77 179.65"/><polygon class="k" points="15.22 165.71 8.25 179.65 4.77 179.65 15.22 158.75 25.67 179.65 22.19 179.65 15.22 165.71"/><polygon class="f" points="39.61 179.65 43.09 179.65 46.58 179.65 43.09 172.68 39.61 179.65"/><polygon class="k" points="46.58 179.65 43.09 172.68 39.61 179.65 43.09 179.65 46.58 179.65"/><polygon class="f" points="32.64 179.65 36.13 179.65 43.09 165.71 50.06 179.65 53.55 179.65 43.09 158.75 32.64 179.65"/><polygon class="k" points="43.09 165.71 50.06 179.65 53.55 179.65 43.09 158.75 32.64 179.65 36.13 179.65 43.09 165.71"/><polygon class="e" points="15.22 123.9 13.48 120.42 15.22 116.94 16.96 120.42 15.22 123.9"/><polygon class="k" points="15.22 123.9 13.48 120.42 15.22 116.94 16.96 120.42 15.22 123.9"/><polygon class="e" points="15.22 109.97 11.74 116.93 9.99 113.45 15.22 103 20.45 113.45 18.7 116.93 15.22 109.97"/><polygon class="k" points="15.22 109.97 11.74 116.93 9.99 113.45 15.22 103 20.45 113.45 18.7 116.93 15.22 109.97"/><polygon class="e" points="15.22 96.03 8.25 109.97 6.51 106.48 11.74 96.03 15.22 89.06 18.7 96.03 23.93 106.48 22.19 109.97 15.22 96.03"/><polygon class="k" points="15.22 96.03 8.25 109.97 6.51 106.48 11.74 96.03 15.22 89.06 18.7 96.03 23.93 106.48 22.19 109.97 15.22 96.03"/><polygon class="e" points="8.25 96.03 4.77 103 3.03 99.51 4.77 96.03 15.22 75.12 25.67 96.03 27.42 99.51 25.67 103 22.19 96.03 15.22 82.09 8.25 96.03"/><polygon class="k" points="8.25 96.03 4.77 103 3.03 99.51 4.77 96.03 15.22 75.12 25.67 96.03 27.42 99.51 25.67 103 22.19 96.03 15.22 82.09 8.25 96.03"/><polygon class="e" points="43.09 123.9 44.84 120.42 43.09 116.94 41.35 120.42 43.09 123.9"/><polygon class="k" points="43.09 123.9 44.84 120.42 43.09 116.94 41.35 120.42 43.09 123.9"/><polygon class="e" points="43.09 109.97 46.58 116.93 48.32 113.45 43.09 103 37.87 113.45 39.61 116.93 43.09 109.97"/><polygon class="k" points="43.09 109.97 46.58 116.93 48.32 113.45 43.09 103 37.87 113.45 39.61 116.93 43.09 109.97"/><polygon class="e" points="43.09 96.03 50.06 109.97 51.81 106.48 46.58 96.03 43.09 89.06 39.61 96.03 34.38 106.48 36.13 109.97 43.09 96.03"/><polygon class="k" points="43.09 96.03 50.06 109.97 51.81 106.48 46.58 96.03 43.09 89.06 39.61 96.03 34.38 106.48 36.13 109.97 43.09 96.03"/><polygon class="f" points="161.56 12.41 165.04 19.38 166.79 15.89 165.04 12.41 161.56 12.41"/><polygon class="k" points="161.56 12.41 165.04 19.37 166.79 15.89 165.04 12.41 161.56 12.41"/><polygon class="e" points="112.78 82.09 114.52 78.61 112.78 75.12 111.04 78.61 112.78 82.09"/><polygon class="k" points="112.78 82.09 114.52 78.61 112.78 75.12 111.04 78.61 112.78 82.09"/><polygon class="e" points="112.78 68.15 116.26 75.12 118.01 71.64 112.78 61.19 107.55 71.64 109.29 75.12 112.78 68.15"/><polygon class="k" points="112.78 68.15 116.26 75.12 118.01 71.64 112.78 61.19 107.55 71.64 109.29 75.12 112.78 68.15"/><polygon class="e" points="112.78 54.22 119.75 68.15 121.49 64.67 112.78 47.25 104.07 64.67 105.81 68.15 112.78 54.22"/><polygon class="k" points="112.78 54.22 119.75 68.15 121.49 64.67 112.78 47.25 104.07 64.67 105.81 68.15 112.78 54.22"/><polygon class="e" points="112.78 40.28 123.23 61.19 124.97 57.7 112.78 33.31 100.58 57.7 102.33 61.19 112.78 40.28"/><polygon class="k" points="112.78 40.28 123.23 61.19 124.97 57.7 112.78 33.31 100.58 57.7 102.33 61.19 112.78 40.28"/><polygon class="f" points="154.59 47.25 140.65 19.38 126.72 47.25 112.78 19.38 98.84 47.25 84.9 19.38 70.97 47.25 57.03 19.38 43.09 47.25 29.16 19.38 15.22 47.25 1.28 19.38 1.28 26.34 15.22 54.22 29.16 26.34 43.09 54.22 57.03 26.34 70.97 54.22 84.9 26.34 98.84 54.22 112.78 26.34 126.72 54.22 140.65 26.34 154.59 54.22 168.53 26.34 168.53 19.38 154.59 47.25"/><polygon class="k" points="112.78 26.34 126.72 54.22 140.65 26.34 154.59 54.22 168.53 26.34 168.53 19.38 154.59 47.25 140.65 19.38 126.72 47.25 112.78 19.38 98.84 47.25 84.91 19.38 70.97 47.25 57.03 19.38 43.09 47.25 29.16 19.38 15.22 47.25 1.28 19.38 1.28 26.34 15.22 54.22 29.16 26.34 43.09 54.22 57.03 26.34 70.97 54.22 84.91 26.34 98.84 54.22 112.78 26.34"/><polygon class="e" points="140.65 82.09 138.91 78.61 140.65 75.12 142.4 78.61 140.65 82.09"/><polygon class="k" points="140.65 82.09 138.91 78.61 140.65 75.12 142.4 78.61 140.65 82.09"/><polygon class="e" points="140.65 68.15 137.17 75.12 135.43 71.64 140.65 61.19 145.88 71.64 144.14 75.12 140.65 68.15"/><polygon class="k" points="140.65 68.15 137.17 75.12 135.43 71.64 140.65 61.19 145.88 71.64 144.14 75.12 140.65 68.15"/><polygon class="e" points="140.65 54.22 133.69 68.15 131.94 64.67 140.65 47.25 149.36 64.67 147.62 68.15 140.65 54.22"/><polygon class="k" points="140.65 54.22 133.69 68.15 131.94 64.67 140.65 47.25 149.36 64.67 147.62 68.15 140.65 54.22"/><polygon class="e" points="140.65 40.28 130.2 61.19 128.46 57.7 140.65 33.31 152.85 57.7 151.11 61.19 140.65 40.28"/><polygon class="k" points="140.65 40.28 130.2 61.19 128.46 57.7 140.65 33.31 152.85 57.7 151.11 61.19 140.65 40.28"/><polygon class="f" points="140.65 89.06 126.72 61.19 112.78 89.06 98.84 61.19 84.91 89.06 70.97 61.19 57.03 89.06 43.09 61.19 29.16 89.06 15.22 61.19 1.28 89.06 1.28 96.03 15.22 68.16 29.16 96.03 43.09 68.16 57.03 96.03 70.97 68.16 84.91 96.03 98.84 68.16 112.78 96.03 126.72 68.16 140.65 96.03 154.59 68.16 168.53 96.03 168.53 89.06 154.59 61.19 140.65 89.06"/><polygon class="k" points="126.72 68.15 112.78 96.03 98.84 68.15 84.91 96.03 70.97 68.15 57.03 96.03 43.09 68.15 29.16 96.03 15.22 68.15 1.28 96.03 1.28 89.06 15.22 61.19 29.16 89.06 43.09 61.19 57.03 89.06 70.97 61.19 84.91 89.06 98.84 61.19 112.78 89.06 126.72 61.19 140.65 89.06 154.59 61.19 168.53 89.06 168.53 96.03 154.59 68.15 140.65 96.03 126.72 68.15"/><polygon class="f" points="166.79 78.61 168.53 82.09 168.53 75.12 166.79 78.61"/><polygon class="k" points="168.53 75.12 166.79 78.61 168.53 82.09 168.53 75.12"/><polygon class="f" points="163.3 71.64 165.04 75.12 168.53 68.15 168.53 61.19 163.3 71.64"/><polygon class="k" points="168.53 61.19 163.3 71.64 165.04 75.12 168.53 68.15 168.53 61.19"/><polygon class="f" points="159.82 64.67 161.56 68.15 168.53 54.22 168.53 47.25 159.82 64.67"/><polygon class="k" points="168.53 47.25 159.82 64.67 161.56 68.15 168.53 54.22 168.53 47.25"/><polygon class="f" points="156.33 57.7 158.07 61.19 168.53 40.28 168.53 33.31 156.33 57.7"/><polygon class="k" points="168.53 33.31 156.33 57.7 158.07 61.19 168.53 40.28 168.53 33.31"/><polygon class="e" points="126.72 40.28 124.97 36.8 126.72 33.31 128.46 36.8 126.72 40.28"/><polygon class="k" points="126.72 40.28 124.97 36.8 126.72 33.31 128.46 36.8 126.72 40.28"/><polygon class="e" points="126.72 26.34 123.23 33.31 121.49 29.83 126.72 19.38 131.94 29.83 130.2 33.31 126.72 26.34"/><polygon class="k" points="126.72 26.34 123.23 33.31 121.49 29.83 126.72 19.38 131.94 29.83 130.2 33.31 126.72 26.34"/><polygon class="f" points="123.23 12.41 118.01 22.86 119.75 26.34 126.72 12.41 123.23 12.41"/><polygon class="k" points="126.72 12.41 119.75 26.34 118.01 22.86 123.23 12.41 126.72 12.41"/><polygon class="f" points="126.72 12.41 133.69 26.34 135.43 22.86 130.2 12.41 126.72 12.41"/><polygon class="k" points="130.2 12.41 135.43 22.86 133.69 26.34 126.72 12.41 130.2 12.41"/><polygon class="f" points="116.26 12.41 114.52 15.89 116.26 19.38 119.75 12.41 116.26 12.41"/><polygon class="k" points="119.75 12.41 116.26 19.37 114.52 15.89 116.26 12.41 119.75 12.41"/><polygon class="f" points="133.69 12.41 137.17 19.38 138.91 15.89 137.17 12.41 133.69 12.41"/><polygon class="k" points="137.17 12.41 138.91 15.89 137.17 19.37 133.68 12.41 137.17 12.41"/><polygon class="e" points="154.59 40.28 156.33 36.8 154.59 33.31 152.85 36.8 154.59 40.28"/><polygon class="k" points="154.59 40.28 156.33 36.8 154.59 33.31 152.85 36.8 154.59 40.28"/><polygon class="e" points="154.59 26.34 158.08 33.31 159.82 29.83 154.59 19.38 149.36 29.83 151.11 33.31 154.59 26.34"/><polygon class="k" points="154.59 26.34 158.08 33.31 159.82 29.83 154.59 19.38 149.36 29.83 151.11 33.31 154.59 26.34"/><polygon class="f" points="154.59 12.41 161.56 26.34 163.3 22.86 158.07 12.41 154.59 12.41"/><polygon class="k" points="154.59 12.41 161.56 26.34 163.3 22.86 158.08 12.41 154.59 12.41"/><polygon class="f" points="151.11 12.41 145.88 22.86 147.62 26.34 154.59 12.41 151.11 12.41"/><polygon class="k" points="151.11 12.41 145.88 22.86 147.62 26.34 154.59 12.41 151.11 12.41"/><polygon class="f" points="144.14 12.41 142.4 15.89 144.14 19.38 147.62 12.41 144.14 12.41"/><polygon class="k" points="144.14 12.41 142.4 15.89 144.14 19.37 147.62 12.41 144.14 12.41"/><polygon class="f" points="105.81 12.41 109.3 19.38 111.04 15.89 109.3 12.41 105.81 12.41"/><polygon class="k" points="105.81 12.41 109.3 19.37 111.04 15.89 109.3 12.41 105.81 12.41"/><polygon class="e" points="57.03 82.09 58.77 78.61 57.03 75.12 55.29 78.61 57.03 82.09"/><polygon class="k" points="57.03 82.09 58.77 78.61 57.03 75.12 55.29 78.61 57.03 82.09"/><polygon class="e" points="57.03 68.15 60.52 75.12 62.26 71.64 57.03 61.19 51.81 71.64 53.55 75.12 57.03 68.15"/><polygon class="k" points="57.03 68.15 60.52 75.12 62.26 71.64 57.03 61.19 51.81 71.64 53.55 75.12 57.03 68.15"/><polygon class="e" points="57.03 54.22 64 68.15 65.74 64.67 57.03 47.25 48.32 64.67 50.06 68.15 57.03 54.22"/><polygon class="k" points="57.03 54.22 64 68.15 65.74 64.67 57.03 47.25 48.32 64.67 50.06 68.15 57.03 54.22"/><polygon class="e" points="57.03 40.28 67.48 61.19 69.23 57.7 57.03 33.31 44.84 57.7 46.58 61.19 57.03 40.28"/><polygon class="k" points="57.03 40.28 67.48 61.19 69.23 57.7 57.03 33.31 44.84 57.7 46.58 61.19 57.03 40.28"/><polygon class="e" points="84.91 82.09 83.16 78.61 84.91 75.12 86.65 78.61 84.91 82.09"/><polygon class="k" points="84.91 82.09 83.16 78.61 84.91 75.12 86.65 78.61 84.91 82.09"/><polygon class="e" points="84.91 68.15 81.42 75.12 79.68 71.64 84.91 61.19 90.13 71.64 88.39 75.12 84.91 68.15"/><polygon class="k" points="84.91 68.15 81.42 75.12 79.68 71.64 84.91 61.19 90.13 71.64 88.39 75.12 84.91 68.15"/><polygon class="e" points="84.91 54.22 77.94 68.15 76.19 64.67 84.91 47.25 93.62 64.67 91.87 68.15 84.91 54.22"/><polygon class="k" points="84.91 54.22 77.94 68.15 76.19 64.67 84.91 47.25 93.62 64.67 91.87 68.15 84.91 54.22"/><polygon class="e" points="84.91 40.28 74.45 61.19 72.71 57.7 84.91 33.31 97.1 57.7 95.36 61.19 84.91 40.28"/><polygon class="k" points="84.91 40.28 74.45 61.19 72.71 57.7 84.91 33.31 97.1 57.7 95.36 61.19 84.91 40.28"/><polygon class="e" points="70.97 40.28 69.23 36.8 70.97 33.31 72.71 36.8 70.97 40.28"/><polygon class="k" points="70.97 40.28 69.23 36.8 70.97 33.31 72.71 36.8 70.97 40.28"/><polygon class="e" points="70.97 26.34 67.48 33.31 65.74 29.83 70.97 19.38 76.19 29.83 74.45 33.31 70.97 26.34"/><polygon class="k" points="70.97 26.34 67.48 33.31 65.74 29.83 70.97 19.38 76.19 29.83 74.45 33.31 70.97 26.34"/><polygon class="f" points="67.48 12.41 62.26 22.86 64 26.34 70.97 12.41 67.48 12.41"/><polygon class="k" points="70.97 12.41 64 26.34 62.26 22.86 67.48 12.41 70.97 12.41"/><polygon class="f" points="70.97 12.41 77.94 26.34 79.68 22.86 74.45 12.41 70.97 12.41"/><polygon class="k" points="74.45 12.41 79.68 22.86 77.94 26.34 70.97 12.41 74.45 12.41"/><polygon class="f" points="60.52 12.41 58.77 15.89 60.52 19.38 64 12.41 60.52 12.41"/><polygon class="k" points="64 12.41 60.52 19.37 58.77 15.89 60.52 12.41 64 12.41"/><polygon class="f" points="77.94 12.41 81.42 19.38 83.16 15.89 81.42 12.41 77.94 12.41"/><polygon class="k" points="81.42 12.41 83.16 15.89 81.42 19.37 77.94 12.41 81.42 12.41"/><polygon class="e" points="98.84 40.28 100.58 36.8 98.84 33.31 97.1 36.8 98.84 40.28"/><polygon class="k" points="98.84 40.28 100.58 36.8 98.84 33.31 97.1 36.8 98.84 40.28"/><polygon class="e" points="98.84 26.34 102.33 33.31 104.07 29.83 98.84 19.38 93.62 29.83 95.36 33.31 98.84 26.34"/><polygon class="k" points="98.84 26.34 102.33 33.31 104.07 29.83 98.84 19.38 93.62 29.83 95.36 33.31 98.84 26.34"/><polygon class="f" points="98.84 12.41 105.81 26.34 107.55 22.86 102.33 12.41 98.84 12.41"/><polygon class="k" points="98.84 12.41 105.81 26.34 107.55 22.86 102.33 12.41 98.84 12.41"/><polygon class="f" points="95.36 12.41 90.13 22.86 91.87 26.34 98.84 12.41 95.36 12.41"/><polygon class="k" points="95.36 12.41 90.13 22.86 91.87 26.34 98.84 12.41 95.36 12.41"/><polygon class="f" points="88.39 12.41 86.65 15.89 88.39 19.38 91.87 12.41 88.39 12.41"/><polygon class="k" points="88.39 12.41 86.65 15.89 88.39 19.37 91.87 12.41 88.39 12.41"/><polygon class="f" points="1.28 82.09 3.03 78.61 1.28 75.12 1.28 82.09"/><polygon class="k" points="1.28 82.09 3.03 78.61 1.28 75.12 1.28 82.09"/><polygon class="f" points="1.28 68.15 4.77 75.12 6.51 71.64 1.28 61.19 1.28 68.15"/><polygon class="k" points="1.28 68.15 4.77 75.12 6.51 71.64 1.28 61.19 1.28 68.15"/><polygon class="f" points="1.28 54.22 8.25 68.15 9.99 64.67 1.28 47.25 1.28 54.22"/><polygon class="k" points="1.28 54.22 8.25 68.15 9.99 64.67 1.28 47.25 1.28 54.22"/><polygon class="f" points="1.28 40.28 11.74 61.19 13.48 57.7 1.28 33.31 1.28 40.28"/><polygon class="k" points="1.28 40.28 11.74 61.19 13.48 57.7 1.28 33.31 1.28 40.28"/><polygon class="e" points="29.16 82.09 27.42 78.61 29.16 75.12 30.9 78.61 29.16 82.09"/><polygon class="k" points="29.16 82.09 27.42 78.61 29.16 75.12 30.9 78.61 29.16 82.09"/><polygon class="e" points="112.78 12.41 114.52 8.92 112.78 5.44 111.04 8.92 112.78 12.41"/><polygon class="k" points="112.78 12.41 114.52 8.92 112.78 5.44 111.04 8.92 112.78 12.41"/><polygon class="e" points="140.65 12.41 138.91 8.92 140.65 5.44 142.4 8.92 140.65 12.41"/><polygon class="k" points="140.65 12.41 138.91 8.92 140.65 5.44 142.4 8.92 140.65 12.41"/><polygon class="e" points="168.53 5.44 166.79 8.92 168.53 12.41 168.53 5.44"/><polygon class="k" points="168.53 5.44 166.79 8.92 168.53 12.41 168.53 5.44"/><polygon class="e" points="57.03 12.41 58.77 8.92 57.03 5.44 55.29 8.92 57.03 12.41"/><polygon class="k" points="57.03 12.41 58.77 8.92 57.03 5.44 55.29 8.92 57.03 12.41"/><polygon class="e" points="84.91 12.41 83.16 8.92 84.91 5.44 86.65 8.92 84.91 12.41"/><polygon class="k" points="84.91 12.41 83.16 8.92 84.91 5.44 86.65 8.92 84.91 12.41"/><polygon class="e" points="1.28 12.41 3.03 8.92 1.28 5.44 1.28 12.41"/><polygon class="k" points="1.28 12.41 3.03 8.92 1.28 5.44 1.28 12.41"/><polygon class="e" points="29.16 12.41 27.42 8.92 29.16 5.44 30.9 8.92 29.16 12.41"/><polygon class="k" points="29.16 12.41 27.42 8.92 29.16 5.44 30.9 8.92 29.16 12.41"/><polygon class="e" points="29.16 68.15 25.67 75.12 23.93 71.64 29.16 61.19 34.38 71.64 32.64 75.12 29.16 68.15"/><polygon class="k" points="29.16 68.15 25.67 75.12 23.93 71.64 29.16 61.19 34.38 71.64 32.64 75.12 29.16 68.15"/><polygon class="e" points="29.16 54.22 22.19 68.15 20.45 64.67 29.16 47.25 37.87 64.67 36.13 68.15 29.16 54.22"/><polygon class="k" points="29.16 54.22 22.19 68.15 20.45 64.67 29.16 47.25 37.87 64.67 36.13 68.15 29.16 54.22"/><polygon class="e" points="29.16 40.28 18.7 61.19 16.96 57.7 29.16 33.31 41.35 57.7 39.61 61.19 29.16 40.28"/><polygon class="k" points="29.16 40.28 18.7 61.19 16.96 57.7 29.16 33.31 41.35 57.7 39.61 61.19 29.16 40.28"/><polygon class="e" points="15.22 40.28 13.48 36.8 15.22 33.31 16.96 36.8 15.22 40.28"/><polygon class="k" points="15.22 40.28 13.48 36.8 15.22 33.31 16.96 36.8 15.22 40.28"/><polygon class="e" points="15.22 26.34 11.74 33.31 9.99 29.83 15.22 19.38 20.45 29.83 18.7 33.31 15.22 26.34"/><polygon class="k" points="15.22 26.34 11.74 33.31 9.99 29.83 15.22 19.38 20.45 29.83 18.7 33.31 15.22 26.34"/><polygon class="f" points="11.74 12.41 6.51 22.86 8.25 26.34 15.22 12.41 11.74 12.41"/><polygon class="k" points="15.22 12.41 8.25 26.34 6.51 22.86 11.74 12.41 15.22 12.41"/><polygon class="f" points="15.22 12.41 22.19 26.34 23.93 22.86 18.7 12.41 15.22 12.41"/><polygon class="k" points="18.7 12.41 23.93 22.86 22.19 26.34 15.22 12.41 18.7 12.41"/><polygon class="f" points="4.77 12.41 3.03 15.89 4.77 19.38 8.25 12.41 4.77 12.41"/><polygon class="k" points="8.25 12.41 4.77 19.37 3.03 15.89 4.77 12.41 8.25 12.41"/><polygon class="f" points="22.19 12.41 25.67 19.38 27.42 15.89 25.67 12.41 22.19 12.41"/><polygon class="k" points="25.67 12.41 27.42 15.89 25.67 19.37 22.19 12.41 25.67 12.41"/><polygon class="e" points="43.09 40.28 44.84 36.8 43.09 33.31 41.35 36.8 43.09 40.28"/><polygon class="k" points="43.09 40.28 44.84 36.8 43.09 33.31 41.35 36.8 43.09 40.28"/><polygon class="e" points="43.09 26.34 46.58 33.31 48.32 29.83 43.09 19.38 37.87 29.83 39.61 33.31 43.09 26.34"/><polygon class="k" points="43.09 26.34 46.58 33.31 48.32 29.83 43.09 19.38 37.87 29.83 39.61 33.31 43.09 26.34"/><polygon class="f" points="43.09 12.41 50.06 26.34 51.81 22.86 46.58 12.41 43.09 12.41"/><polygon class="k" points="43.09 12.41 50.06 26.34 51.81 22.86 46.58 12.41 43.09 12.41"/><polygon class="f" points="39.61 12.41 34.38 22.86 36.13 26.34 43.09 12.41 39.61 12.41"/><polygon class="k" points="39.61 12.41 34.38 22.86 36.13 26.34 43.1 12.41 39.61 12.41"/><polygon class="f" points="32.64 12.41 30.9 15.89 32.64 19.38 36.13 12.41 32.64 12.41"/><polygon class="k" points="32.64 12.41 30.9 15.89 32.64 19.37 36.13 12.41 32.64 12.41"/></g><g><path class="d" d="M60.85,54.43l-.5,5.39c-2.33-.04-6.08-.08-9.42-.08-1.94,0-2.48,.19-2.48,1.01,0,.74,.5,1.12,2.33,1.82l4.84,2.02c4.46,1.94,6.01,4.22,6.01,8.14,0,6.01-2.6,8.18-10.93,8.18-1.82,0-5.7-.12-10.35-1.32l.5-5.89c4.61,.12,8.29,.19,9.73,.19,2.13,0,2.64-.19,2.64-.93s-.39-1.08-1.82-1.63l-5.31-2.33c-4.34-1.94-5.97-4.15-5.97-8.06,0-6.08,2.95-7.87,11.01-7.87,2.79,0,6.51,.23,9.73,1.36Z"/><path class="d" d="M64.65,80.36v-26.74h8.33v26.74h-8.33Z"/><path class="d" d="M101.66,77.45c0,1.9-1.01,2.91-2.91,2.91h-3.22c-1.74,0-2.36-.85-3.26-2.44l-5.81-9.19c-.74-1.32-1.32-2.95-1.78-4.57h-.27c.23,1.63,.39,3.33,.39,4.88v11.32h-7.75v-23.84c0-1.9,1.01-2.91,2.91-2.91h3.22c1.74,0,2.33,.85,3.26,2.44l5.58,8.76c.74,1.28,1.43,2.87,2.05,4.57h.27c-.19-1.63-.35-3.22-.35-4.84l-.04-10.93h7.71v23.84Z"/><path class="d" d="M113.78,69.2c.19,.85,.31,1.71,.31,2.44v8.72h-8.41v-26.74h8.41v6.74c0,1.09-.12,2.29-.39,3.41h1.47l5.58-10.15h9.03l-6.16,10.46c-.66,1.2-1.63,2.05-2.36,2.36v.16c.74,.31,2.05,1.47,2.67,2.64l6.24,11.12h-9.34l-5.66-11.16h-1.4Z"/></g><g><path class="d" d="M68.41,84.46l-.5,5.39c-2.33-.04-6.08-.08-9.42-.08-1.94,0-2.48,.19-2.48,1.01,0,.74,.5,1.12,2.33,1.82l4.84,2.02c4.46,1.94,6.01,4.22,6.01,8.14,0,6.01-2.6,8.18-10.93,8.18-1.82,0-5.7-.12-10.35-1.32l.5-5.89c4.61,.12,8.29,.19,9.73,.19,2.13,0,2.64-.19,2.64-.93s-.39-1.09-1.82-1.63l-5.31-2.33c-4.34-1.94-5.97-4.15-5.97-8.06,0-6.08,2.95-7.87,11.01-7.87,2.79,0,6.51,.23,9.73,1.36Z"/><path class="d" d="M92.16,110.04c-3.88,.5-9.3,.5-13.91,.5-3.68,0-6.28-2.48-6.28-6.08v-14.88c0-3.6,2.6-6.08,6.28-6.08,4.61,0,10.04,0,13.91,.5l-.39,5.93h-9.81c-.97,0-1.59,.58-1.59,1.4v2.6h10v5.58h-10v3.22c0,.81,.62,1.4,1.59,1.4h9.81l.39,5.93Z"/><path class="d" d="M119.87,107.48c0,1.9-1.01,2.91-2.91,2.91h-3.22c-1.74,0-2.36-.85-3.26-2.44l-5.81-9.19c-.74-1.32-1.32-2.95-1.78-4.57h-.27c.23,1.63,.39,3.33,.39,4.88v11.32h-7.75v-23.84c0-1.9,1.01-2.91,2.91-2.91h3.22c1.74,0,2.33,.85,3.26,2.44l5.58,8.76c.74,1.28,1.43,2.87,2.05,4.57h.27c-.19-1.63-.35-3.22-.35-4.84l-.04-10.93h7.71v23.84Z"/></g><g><path class="g" d="M82.32,119.8c0,2.79-.5,4.34-4.07,7.91l-6.32,5.97c1.2-.35,2.29-.43,3.57-.39h7.44v7.05h-20.74v-4.19c0-1.36,.31-2.36,1.16-3.37l5.58-5.46c2.91-2.91,4.77-5.23,4.77-6.43,0-.74-.62-.81-2.36-.81-2.87,0-4.84,0-8.64,.08l-.27-6.16c4.03-.74,6.94-.85,10-.85,5.93,0,9.88,1.32,9.88,6.67Z"/><path class="g" d="M105.57,119.8c0,2.79-.5,4.34-4.07,7.91l-6.32,5.97c1.2-.35,2.29-.43,3.57-.39h7.44v7.05h-20.74v-4.19c0-1.36,.31-2.36,1.16-3.37l5.58-5.46c2.91-2.91,4.77-5.23,4.77-6.43,0-.74-.62-.81-2.36-.81-2.87,0-4.84,0-8.64,.08l-.27-6.16c4.03-.74,6.94-.85,10-.85,5.93,0,9.88,1.32,9.88,6.67Z"/></g></svg>